<svg xmlns:mydata="http://www.w3.org/2000/svg" mydata:contrastcolor="101820" mydata:template="Contrast" mydata:presentation="2.5" mydata:layouttype="undefined" mydata:specialfontid="undefined" mydata:id1="779" mydata:id2="276" mydata:companyname="Phenix Seller" mydata:companytagline="" version="1.1" xmlns="http://www.w3.org/2000/svg" xmlns:xlink="http://www.w3.org/1999/xlink" viewBox="0 0 550 470" style="background-image: radial-gradient(circle closest-side, rgba(255, 255, 255, 0.07) 0%, rgba(255, 255, 255, 0) 100%);"><defs style="animation-play-state: running;"><g fill-rule="evenodd" font-family="none" font-weight="none" font-size="none" text-anchor="none" style="mix-blend-mode: normal; animation-play-state: running;" id="interstellar-group"><g data-paper-data="{&quot;isGlobalGroup&quot;:true,&quot;bounds&quot;:{&quot;x&quot;:77.25438432061442,&quot;y&quot;:105.99999999999997,&quot;width&quot;:395.4912313587712,&quot;height&quot;:258}}" style="animation-play-state: running;"><g data-paper-data="{&quot;isIcon&quot;:&quot;true&quot;,&quot;iconType&quot;:&quot;icon&quot;,&quot;rawIconId&quot;:&quot;3edb9598-ed4e-47de-a844-80769422274e&quot;,&quot;isSvgStockIcon&quot;:true,&quot;selectedEffects&quot;:{&quot;container&quot;:&quot;circle_simple_filled&quot;,&quot;transformation&quot;:&quot;&quot;,&quot;pattern&quot;:&quot;&quot;},&quot;combineTerms&quot;:&quot;animal,phoenix&quot;,&quot;combineTermsExtended&quot;:{&quot;icon&quot;:[&quot;animal&quot;,&quot;phoenix&quot;]},&quot;isDetailed&quot;:false,&quot;fillRule&quot;:&quot;nonzero&quot;,&quot;blockLetter&quot;:&quot;O&quot;,&quot;blockLetterId&quot;:0,&quot;relativeBoundsIconToContainer&quot;:{&quot;top&quot;:0.018031273742472445,&quot;left&quot;:0.0021328342939109447},&quot;widthRatioIconToContainer&quot;:0.7867598862932128,&quot;heightRatioIconToContainer&quot;:0.8455523294095649,&quot;bounds&quot;:{&quot;x&quot;:187.4875908128098,&quot;y&quot;:147.48753323889423,&quot;width&quot;:175.02470322654938,&quot;height&quot;:136.16691615363402},&quot;iconStyle&quot;:&quot;standalone&quot;,&quot;suitableAsStandaloneIcon&quot;:false}" style="animation-play-state: running;"><path d="M187.48759,234.99988c0,-48.33157 39.18078,-87.51235 87.51235,-87.51235c48.331,0 87.51235,39.18078 87.51235,87.51235c0,18.00578 -5.43843,34.74125 -14.7608,48.65456h-30.32418c0.57113,-0.84864 1.14112,-1.69843 1.72146,-2.54016c0.32817,-0.47556 0.71046,-0.92694 1.01676,-1.46123c-0.37423,0.22914 -0.74155,0.45138 -1.10887,0.67246c-0.03109,-0.02994 -0.06103,-0.06794 -0.09212,-0.09903c0.10709,-0.13818 0.21533,-0.29017 0.33623,-0.42029c2.60004,-2.70597 5.36013,-5.22195 8.62457,-7.13341c2.29259,-1.34493 4.61052,-2.66798 6.88008,-4.05896c3.3105,-2.0266 6.23871,-4.48846 7.70569,-8.21925c0.64943,-1.64316 0.96379,-3.41713 1.39099,-5.14481c0.16121,-0.62698 0.22224,-1.27653 0.32126,-1.91894v-4.93017c-0.09903,-0.64241 -0.20496,-1.28482 -0.32817,-1.93437c-0.3892,-2.36295 -0.80949,-4.72475 -1.15378,-7.09472c-0.26714,-1.85054 -0.43641,-3.70799 -0.64252,-5.56556c-0.05412,-0.44401 -0.12897,-0.87984 -0.14509,-1.32259c-0.114,-2.96644 0.076,-5.89384 1.22402,-8.72325c-0.33738,0.40497 -0.73464,0.77932 -1.00294,1.23047c-2.66798,4.54166 -4.73142,9.3196 -5.58122,14.54858c-0.29708,1.85872 -0.58035,3.7316 -0.72543,5.60448c-0.18309,2.4386 -0.18309,4.89252 -0.32817,7.33929c-0.17618,2.91209 -0.3132,5.8631 -1.94139,8.43205c-0.86476,1.36105 -1.75831,2.72094 -2.82112,3.93c-1.86655,2.12563 -3.90697,4.08199 -5.81036,6.17653c-2.20278,2.4158 -4.41246,4.87766 -5.65836,7.92908c-0.71852,1.75025 -1.94254,2.52865 -3.53158,3.04221c-1.73413,0.56307 -3.47286,1.11118 -5.21159,1.66158h-5.09414c2.03927,-1.00639 4.07163,-2.02775 6.03259,-3.16772c2.19357,-1.27008 4.27314,-2.77506 6.27556,-4.34222c2.47798,-1.93448 4.66349,-4.18217 6.62906,-6.659c3.27941,-4.14417 5.63418,-8.75354 7.07123,-13.81532c0.57344,-2.00979 0.90967,-4.09765 1.20099,-6.16893c0.29017,-2.09488 0.38114,-4.21222 0.56538,-6.32254c-0.09212,-0.03777 -0.19115,-0.06851 -0.29017,-0.10743c-0.52853,0.87973 -1.08584,1.74299 -1.58328,2.63815c-1.11578,2.00979 -2.09454,4.11297 -3.33353,6.04733c-2.5298,3.95245 -5.92436,7.10174 -9.96835,9.44961c-3.34159,1.93333 -6.84208,3.60067 -10.26658,5.38086c-0.01958,0.00921 -0.04836,0.0023 -0.12781,-0.01842l-0.00691,-0.0023c-0.04951,-0.01267 -0.11975,-0.03224 -0.21763,-0.05527c0.64943,-0.59647 1.26778,-1.05475 1.76522,-1.62934c2.09454,-2.42271 4.72452,-4.24205 7.07929,-6.36652c2.49295,-2.25586 4.83275,-4.68732 7.15644,-7.11878c2.53786,-2.64518 4.65543,-5.62578 6.63597,-8.69965c2.19357,-3.40216 4.07508,-6.96495 5.72515,-10.66465c1.51419,-3.40216 2.81421,-6.86569 3.62485,-10.49699c0.47326,-2.11734 0.92464,-4.25828 1.12269,-6.41339c0.25333,-2.70655 0.38229,-5.44384 0.29017,-8.15753c-0.08291,-2.317 -0.4272,-4.64092 -0.88664,-6.91889c-0.67937,-3.37141 -1.55104,-6.70506 -2.35477,-10.05298c-0.12897,-0.55847 -0.33508,-1.10876 -0.52623,-1.71225c-0.09212,0.09097 -0.17618,0.12989 -0.17618,0.17595c-0.06103,1.21516 -0.114,2.42317 -0.16927,3.63833c-0.10594,2.40072 -0.10594,4.80857 -0.31896,7.19398c-0.52162,5.81001 -1.59134,11.52077 -3.44868,17.07101c-0.03915,0.12989 -0.114,0.26092 -0.24411,0.52784c-0.02418,-0.32829 -0.03915,-0.52784 -0.03915,-0.72624c0,-0.41799 0.00115,-0.83609 0.0023,-1.25408v-0.23387v-0.00668c0.00115,-0.75595 0.0023,-1.51178 -0.0023,-2.26657c-0.03109,-3.59342 -0.96264,-6.99558 -2.44574,-10.22179c-1.65928,-3.60758 -3.5408,-7.11015 -5.24614,-10.69528c-1.81128,-3.82256 -3.30935,-7.76672 -4.07393,-11.94947c-0.29017,-1.61311 -0.33623,-3.27112 -0.47441,-4.91485c-0.076,-0.86441 -0.13012,-1.72768 -0.14509,-2.59209c-0.00115,-0.15971 0.00691,-0.32184 0.01497,-0.48627v-0.0061c0.01842,-0.32598 0.0357,-0.66371 -0.02994,-1.02862c-0.2752,0.59635 -0.65749,1.16196 -0.80258,1.78905c-0.42835,1.82682 -0.81755,3.66907 -1.10196,5.52664c-0.31896,2.1102 -0.56538,4.23583 -0.7404,6.36146c-0.13818,1.65087 -0.13818,3.31706 -0.16812,4.97623c-0.02303,1.44545 -0.01612,2.88963 0,4.33509c0.0023,0.13104 0.01036,0.26334 0.01842,0.39553v0.01301l0.00115,0.00956c0.01842,0.32287 0.03685,0.65174 -0.02648,1.00363c-0.1923,-0.45817 -0.36732,-0.9175 -0.57459,-1.36865c-1.25396,-2.75975 -2.85912,-5.30567 -4.89263,-7.55301c-1.44511,-1.59065 -2.86718,-3.23439 -4.50228,-4.61017c-2.26381,-1.90362 -4.67155,-3.63833 -7.09426,-5.33641c-5.16933,-3.6313 -10.605,-6.82677 -16.33821,-9.50971c-1.1159,-0.51966 -2.26254,-0.9707 -3.46353,-1.36162c0.9175,0.81133 1.82797,1.63671 2.76804,2.42444c1.88819,1.57407 3.77639,3.14941 5.70247,4.6704c1.85043,1.45247 3.77765,2.82112 5.62693,4.2736c2.43146,1.91191 4.70252,3.98319 6.76597,6.30722c2.25575,2.53774 4.06702,5.34355 5.49601,8.39497c1.59134,3.38558 2.81421,6.91762 3.32662,10.64093c0.26714,1.94968 0.45829,3.93011 0.42835,5.88682c-0.04606,2.52358 -0.35235,5.04589 -0.53544,7.44673c-1.12384,-1.74299 -2.33174,-3.60056 -3.53158,-5.4511c-0.10018,0.03074 -0.20727,0.06149 -0.30629,0.09212c0.13818,1.01676 0.28326,2.04065 0.41338,3.05741c0.07369,0.59393 0.17042,1.18671 0.26714,1.78076l0.00115,0.00357l0.00115,0.00645c0.21072,1.29921 0.42144,2.59601 0.39496,3.88923c-0.08291,4.13669 -1.2459,7.96639 -4.33416,10.9174c-1.95751,1.86586 -4.06011,3.56981 -6.13174,5.31281c-2.83644,2.37838 -5.63407,4.7791 -7.60724,7.98999c-0.89401,1.4595 -1.81151,2.92026 -2.90506,4.22754c-1.70396,2.03351 -4.16616,1.88819 -6.10756,0.59635c-1.59065,-1.05568 -2.65347,-2.55421 -3.14238,-4.38817c-0.09074,-0.32437 0.02694,-0.70528 0.13196,-1.04508l0.00035,-0.00127l0.00115,-0.0023c0.04491,-0.14762 0.08855,-0.28695 0.111,-0.41211c1.1927,0.22903 2.20243,0.56561 3.22621,0.59635c2.05712,0.06137 3.93713,-0.67315 5.69544,-1.70522c1.64385,-0.96241 3.27227,-1.95671 4.90069,-2.94283c0.06137,-0.03777 0.08383,-0.11446 0.16063,-0.22201c-3.31004,0.68847 -6.46774,0.03904 -9.61012,-0.79475c-1.13133,-0.29869 -2.27797,-0.5739 -3.43993,-0.68018c-0.61167,-0.0578 -1.24935,0.09684 -1.86931,0.24803c-0.12517,0.02948 -0.24803,0.06022 -0.37089,0.08855c-0.16766,0.03777 -0.35189,0.32126 -0.40497,0.52669c-0.73453,2.67592 -1.45247,5.36002 -2.1634,8.04308c-0.86441,3.25684 -0.43572,6.41454 0.64943,9.54863c0.98613,2.85901 1.93437,5.72653 2.80581,8.6225c0.5739,1.88958 0.63412,3.854 0.24446,5.78042c-0.19126,0.94076 -0.67304,1.8274 -1.05452,2.72209c-1.18556,2.74512 -1.34619,5.60309 -1.02505,8.53936c0.13265,1.21366 0.42202,2.36859 0.81386,3.48898h-6.19219c-0.23398,-1.09275 -0.51195,-2.12563 -0.53083,-3.16081c-0.00829,-1.10081 0.33658,-2.22466 0.66486,-3.29438c0.80304,-2.6081 1.74299,-5.1759 2.49997,-7.79781c0.45103,-1.55219 0.82538,-3.15735 0.65772,-4.67961c-1.43716,2.36974 -2.91324,4.82469 -4.39646,7.27043c-0.47349,-2.37665 -0.89389,-4.62549 -1.10772,-6.88814c-0.16881,-1.81128 -0.25263,-3.66861 -0.09212,-5.47298c0.16063,-1.79757 0.68029,-3.56302 1.0475,-5.36739c-1.55173,1.84225 -2.0182,4.21245 -3.17301,6.25402c0,-1.20099 0,-2.38586 0.1452,-3.56279c0.33658,-2.75975 1.2695,-5.35173 2.26265,-7.93553c0.83367,-2.1634 1.55277,-4.36583 2.32507,-6.54454c-0.092,-0.03777 -0.17595,-0.06851 -0.26092,-0.10628c-0.72624,1.21516 -1.5363,2.39243 -2.14808,3.66193c-1.43704,2.99592 -2.89666,5.99298 -4.14371,9.06686c-1.94842,4.80086 -2.96517,9.79367 -2.52945,15.02253c0.15936,1.91836 0.48063,3.78491 1.07698,5.61115c1.00962,3.0733 2.73016,5.64915 5.45927,7.44661c0.27854,0.18424 0.57631,0.33853 0.87823,0.47671h-1.71455c-0.27474,-0.17042 -0.54672,-0.34775 -0.81582,-0.53083c-2.00979,-1.37602 -3.46238,-3.20226 -4.44839,-5.40504c-0.49709,-1.10772 -0.90218,-2.25575 -1.37694,-3.37844c-0.07669,-0.16927 -0.28223,-0.32126 -0.46646,-0.40532c-2.17042,-1.03172 -4.4188,-1.90339 -6.49837,-3.08942c-2.59094,-1.47504 -5.09092,-3.12626 -7.53769,-4.83851c-1.28355,-0.90276 -2.40786,-2.05654 -3.51673,-3.18729c-2.8825,-2.94433 -5.30567,-6.25425 -7.41598,-9.7863c-0.22074,-0.36732 -0.44274,-0.74167 -0.61051,-1.17025c2.09373,1.78905 4.23468,3.49428 6.89528,4.82389c-3.50959,-3.83673 -6.5906,-7.70535 -8.25679,-12.50678c-1.0475,-3.0125 -1.58248,-6.12414 -1.91894,-9.31131c1.50682,2.74432 3.36427,5.22069 5.5431,7.48449c-1.16207,-3.64662 -2.30871,-7.24833 -2.20946,-11.14643c0.09914,-3.83799 0.90218,-7.50821 2.12563,-10.98591c0.66475,2.3618 1.34493,4.79326 2.0334,7.23174h0.32829c0.67315,-4.22051 1.16207,-8.49296 3.18015,-12.30009c0,0.30226 -0.0023,0.60579 -0.00587,0.91163l-0.00058,0.06725c-0.00576,0.66625 -0.01151,1.3356 0.01474,2.00161c0.15234,4.0068 1.28367,7.64513 3.88278,10.78751c1.86586,2.24723 4.152,3.99022 6.44528,5.7415c3.76948,2.87432 7.20941,6.05447 9.63258,10.19818c0.20669,0.36018 0.37435,0.74155 0.63412,1.24578c0.55858,-0.74869 1.05568,-1.4595 1.60597,-2.13265c1.14664,-1.40642 2.30157,-2.81283 3.49428,-4.18862c1.96385,-2.25552 3.34781,-4.75549 3.40101,-7.83639c0.00967,-0.51828 0.0076,-1.03944 0.00541,-1.59837l-0.00069,-0.16593c-0.00242,-0.33059 -0.00472,-0.67546 -0.00472,-1.04151c1.36865,0.80304 2.59209,1.52928 3.84617,2.27083c0.97899,-1.6214 1.05452,-3.45639 0.84081,-5.37545c-0.30583,-2.77506 -1.62842,-5.19823 -2.64518,-7.72066c-0.46646,-1.17727 -1.65917,-1.78905 -2.78335,-2.3086c-1.87299,-0.86441 -3.73758,-0.93293 -5.51132,0.29052c-0.34475,0.24446 -0.62698,0.57275 -0.89504,0.90921c1.97329,-0.68835 3.17301,0.46646 4.00668,1.76545c1.14664,1.79734 2.07128,3.73171 3.19558,5.53608c0.60337,0.96241 1.48322,1.76545 2.13979,2.7054c0.41327,0.59635 0.66602,1.31556 0.89504,2.02637c-1.98031,-2.40774 -4.31137,-4.29605 -7.20929,-5.5431c0.81836,1.21642 1.51385,2.52358 2.47752,3.60885c0.81709,0.92464 0.87144,1.91191 0.75572,2.95101c-0.20542,1.94968 -0.542,3.89937 -1.58236,5.5963c-0.76401,1.24578 -1.71236,2.3854 -2.62157,3.53907c-1.17739,1.50682 -2.39369,2.97473 -3.53204,4.38828c-0.48189,-0.82549 -1.02505,-1.87288 -1.68162,-2.8354c-1.38396,-2.0334 -3.15067,-3.7316 -5.02355,-5.30567c-2.54592,-2.13392 -5.19823,-4.15914 -7.60609,-6.43711c-2.47752,-2.34763 -3.83788,-5.35173 -4.41891,-8.76217c-0.5207,-3.03495 -0.04606,-5.96235 0.52669,-8.90634c0.15349,-0.79475 0.22201,-1.59768 0.32944,-2.39957c-0.08383,-0.03892 -0.17595,-0.07669 -0.25977,-0.11572c-1.22333,1.86586 -2.44678,3.73873 -3.70085,5.64236c0,-0.06494 0.0023,-0.1323 0.00345,-0.19955v-0.00242l0.00012,-0.00104c0.00345,-0.13657 0.00702,-0.27209 -0.00357,-0.40877c-0.14532,-2.56135 -0.32126,-5.12972 -0.43583,-7.69107c-0.13691,-3.20261 0.48189,-6.31425 1.36162,-9.3728c1.3143,-4.57828 3.24867,-8.87559 6.12287,-12.69804c1.55173,-2.05596 3.32547,-3.90639 5.23727,-5.64938c3.44822,-3.1577 7.2778,-5.81001 11.00122,-8.60051c1.26121,-0.94824 2.39243,-2.06414 3.5781,-3.1045c1.05452,-0.92464 2.10202,-1.84927 3.14941,-2.77518c-2.82112,1.34631 -5.67299,2.62986 -8.46348,4.03754c-4.33382,2.18574 -8.3937,4.82389 -12.35444,7.61438c-2.11734,1.49024 -4.1733,3.08803 -6.19138,4.72359c-3.41759,2.77621 -6.17734,6.13945 -8.41742,9.92413c-0.6271,1.06281 -1.05568,2.24723 -1.58236,3.37855c-0.06149,0.12286 -0.14532,0.23732 -0.16892,0.2752c0,-0.55743 0.00357,-1.12073 0.00714,-1.68749l0.00115,-0.01186l0.00058,-0.10156c0.00691,-1.22126 0.01393,-2.45864 -0.01589,-3.69613c-0.05435,-2.24734 -0.09926,-4.50274 -0.30595,-6.74294c-0.30583,-3.38684 -0.68018,-6.77242 -1.63671,-10.06001c-0.20542,-0.71092 -0.53486,-1.38408 -0.80177,-2.07243c-0.06137,0.02361 -0.12989,0.03892 -0.19955,0.06137c0.04606,0.46646 0.13818,0.93293 0.13818,1.39939c0.02234,5.43555 -0.87155,10.71773 -3.07387,15.69523c-1.95682,4.41062 -4.15914,8.71496 -6.23042,13.07239c-1.47493,3.11164 -2.66061,6.3154 -2.92038,9.77778c-0.13818,1.78905 -0.11446,3.58639 -0.16052,5.38259c-0.00714,0.29052 0,0.58092 -0.0532,0.87144c-3.3561,-9.17429 -4.01382,-18.74549 -4.31263,-28.43115c-0.16766,0.4736 -0.38966,0.93178 -0.50423,1.41355c-0.83367,3.51673 -1.66619,7.03334 -2.44678,10.56539c-0.88687,4.0068 -1.10058,8.08084 -0.86326,12.14787c0.14532,2.55432 0.58104,5.10738 1.06281,7.62981c0.71092,3.70085 1.89533,7.2778 3.42461,10.70357c1.39928,3.11866 2.89793,6.21499 4.63263,9.15897c1.77374,3.01123 3.83788,5.85607 5.87139,8.70667c0.91047,1.27664 2.03351,2.40912 3.09633,3.5781c1.03207,1.13962 2.04883,2.30871 3.19547,3.32547c2.49284,2.20232 5.06961,4.31309 7.58364,6.48363c0.52081,0.44332 0.93293,1.0087 1.423,1.49807c1.03207,1.03978 2.07957,2.07266 3.04198,3.21953c-0.20658,-0.09212 -0.40497,-0.1923 -0.60337,-0.29132c-4.59486,-2.21775 -9.23578,-4.35835 -13.28748,-7.50764c-2.8825,-2.24032 -5.33641,-4.90081 -7.17855,-8.05735c-1.29196,-2.21775 -2.45392,-4.51103 -3.69268,-6.76655c-0.1984,-0.35903 -0.45817,-0.68018 -0.83252,-1.22345c0,0.32126 -0.00472,0.6165 -0.00829,0.89631c-0.00829,0.56918 -0.01531,1.07111 0.01531,1.57419c0.06851,1.10058 0.11457,2.21648 0.29766,3.30175c0.39081,2.31689 0.65772,4.67166 1.3379,6.89643c0.78761,2.5838 1.85043,5.09898 3.00536,7.54587c1.36036,2.89021 3.22621,5.47298 5.33526,7.88993c3.8616,4.41016 8.44103,7.9049 13.58618,10.6339c1.8381,0.97876 3.7202,1.87691 5.60954,2.7624h-4.19553c-3.07905,-0.84403 -6.1147,-1.80897 -9.04371,-3.09172c-0.82665,-0.35926 -1.45259,-0.87167 -1.78905,-1.73528c-0.84081,-2.15672 -2.15637,-4.03593 -3.63959,-5.7643c-2.04883,-2.38471 -4.19679,-4.67961 -6.35317,-6.9722c-1.83396,-1.94139 -3.6997,-3.87588 -4.85463,-6.29283c-0.68018,-1.41286 -1.18441,-2.98129 -1.37579,-4.52473c-0.2904,-2.34752 -0.24434,-4.74006 -0.35189,-7.11832c-0.25977,-5.62578 -0.99303,-11.16888 -2.98878,-16.4818c-1.02505,-2.71484 -2.39254,-5.24429 -3.87576,-7.72181c-0.20658,-0.3436 -0.51241,-0.6271 -0.83367,-0.90932c1.1927,2.79763 1.49853,5.72619 1.2695,8.68433c-0.20669,2.63689 -0.61996,5.26675 -0.97899,7.88958c-0.28338,2.0334 -0.6271,4.05988 -0.93995,6.09339c-0.09926,0.64241 -0.20669,1.27653 -0.30595,1.91894v5.07549c0.09926,0.58921 0.22201,1.17025 0.30595,1.75831c0.45103,3.19662 1.42887,6.16156 3.50844,8.71669c1.80437,2.20854 4.11297,3.7757 6.49134,5.2588c2.79752,1.75025 5.6647,3.40262 8.4469,5.1759c1.07111,0.68052 2.07957,1.49922 2.9593,2.40774c1.03207,1.05475 1.88819,2.27878 2.82112,3.4245c0.02602,-0.02303 0.0532,-0.04606 0.07911,-0.06909c1.00397,1.42668 1.98906,2.85567 2.97197,4.27774h-31.85772c-9.32316,-13.91331 -14.76115,-30.64878 -14.76115,-48.65456zM289.61589,236.64247c1.10876,-0.71081 1.88819,-1.64374 2.39243,-2.82112c-0.3968,0.23732 -0.77115,0.52784 -1.17739,0.68732c-1.77362,0.65772 -4.1284,-0.52669 -5.11441,-2.09373c-0.98601,-1.56002 -1.78905,-3.24982 -2.5306,-4.93973c-1.38281,-3.16472 -3.22621,-5.93161 -6.25287,-7.75129c-0.96356,-0.58104 -1.98031,-1.00973 -3.20376,-1.04036c0.61167,1.51385 1.2459,2.92026 1.75842,4.36571c1.04036,2.95815 1.31545,5.91745 -0.24446,8.8224c-0.0768,0.13703 -0.15234,0.37435 -0.09212,0.46646c0.70378,1.03921 0.87144,2.2166 0.85612,3.25696c0.38264,0 0.76401,-0.01543 1.14307,-0.03074l0.00725,-0.00023c0.84069,-0.0342 1.66953,-0.06782 2.47384,0.06874c1.965,0.32944 3.88394,0.93995 5.84064,1.32259l0.03904,0.00829l0.00311,0.00058c1.37118,0.26438 2.7624,0.53256 4.10168,-0.32184zM243.998,236.83384c-2.75975,-2.30157 -4.96207,-5.06132 -7.00272,-8.04308c-0.07669,6.29179 0.29052,12.46901 3.93,17.96606c-2.82941,-1.30013 -5.64224,-2.57666 -7.59193,-5.21366c0.22201,0.87858 0.57275,1.65801 0.94824,2.43031c0.93293,1.94254 1.82682,3.89937 2.83655,5.80287c1.78779,3.37153 4.31137,6.06276 7.60609,8.01245c0.41327,0.24411 0.82549,0.49629 1.23876,0.74155c-0.03892,0.08406 -0.0768,0.17618 -0.11457,0.26023c-2.27797,-0.67361 -4.55709,-1.35379 -6.78889,-2.01854c0.2668,0.32115 0.53486,0.71081 0.86315,1.03909c1.7666,1.74288 3.54747,3.46319 5.32939,5.19156c1.88002,1.81934 3.88394,3.47862 6.14659,4.80051c1.67448,0.97876 3.47056,1.63625 5.5195,2.15557c-1.75842,-1.56025 -3.39387,-2.98118 -4.73188,-4.82354c1.10772,0.24411 2.07128,0.55847 3.05729,0.64943c0.9707,0.09212 1.98043,0.06103 2.94398,-0.08406c1.83396,-0.2752 1.93437,-0.38229 2.62157,-1.19293c-2.06414,-0.69549 -3.72331,-1.89533 -4.96091,-3.6997c-1.06281,-1.5591 -2.81398,-4.79291 -2.84473,-5.50384c2.27083,1.78076 5.20652,3.12603 6.68974,2.99592c-2.46923,-2.13265 -4.29605,-4.64794 -5.60332,-7.73598c2.25436,1.85756 4.61731,3.18015 7.20929,4.16616c-0.93281,-1.14664 -1.87403,-2.30157 -2.80581,-3.44822c0.03788,-0.03074 0.07565,-0.06851 0.11457,-0.09914c0.71092,0.62698 1.42185,1.24578 2.30042,2.01106c-0.08383,-0.75698 -0.09926,-1.29196 -0.20554,-1.80448c-0.72624,-3.58513 -2.59198,-6.59763 -4.9243,-9.3196c-2.26254,-2.63689 -5.06835,-4.68571 -7.75141,-6.86454c-1.965,-1.59768 -3.76936,-3.34182 -5.25258,-5.39778c-0.45817,-0.64241 -0.90921,-1.29196 -1.36865,-1.93437c0.61996,3.07387 1.18568,6.13945 2.59209,8.96069z" style="animation-play-state: running;"/><path d="M221.78898,213.89029c0.29869,4.22754 0.84898,8.41028 1.79734,12.51507c0.09085,-6.61306 1.13835,-13.0725 2.66049,-19.4647c0.1216,0.00829 0.23617,0.01543 0.35903,0.02372c0.03063,1.2611 0.06851,2.52231 0.08383,3.78353c0.01531,1.27768 0.00829,2.55432 0.12989,3.83788c1.22345,-4.55582 2.39243,-9.0976 4.44954,-13.34057c0.06149,0.01543 0.13,0.02372 0.19138,0.03904c-0.32126,3.42461 -0.63539,6.8574 -0.95538,10.28201c0.04491,0.01531 0.09926,0.02361 0.14532,0.03892c0.89389,-1.78905 1.85745,-3.54736 2.66763,-5.37533c0.81006,-1.81864 1.46779,-3.69981 2.187,-5.55726c0.09085,0.01531 0.19011,0.03777 0.29052,0.05308c0,0.25977 0.00818,0.52081 0.01647,0.78174v0.00115c0.01773,0.56929 0.03547,1.13847 -0.0319,1.69463c-0.24561,1.94139 -0.56561,3.87565 -0.87973,5.81001c-0.38264,2.33934 -0.83367,4.6704 -1.16196,7.01803c-0.08889,0.66728 -0.06667,1.3485 -0.04445,2.02983l0.00069,0.02142c0.01059,0.31055 0.0213,0.62111 0.0213,0.93051c0,0.11457 -0.01543,0.22201 -0.09212,0.33658c-1.33802,-2.08786 -1.46077,-4.38114 -1.18568,-6.76655c-0.84783,2.15626 -1.48195,4.33509 -1.42887,6.68974c0.04249,1.64143 0.03305,3.28759 0.02361,4.93374v0.00242c-0.00472,0.70735 -0.00818,1.41355 -0.00818,2.11964c-0.06851,0.02361 -0.14532,0.05435 -0.21383,0.08509c-0.23018,-0.49721 -0.5739,-0.97899 -0.67304,-1.49853c-0.35189,-1.8198 -0.66486,-3.65491 -0.91047,-5.49002c-0.19011,-1.36036 -0.2516,-2.74443 -0.40509,-4.1284c-0.542,2.60027 -0.84081,5.24556 -0.75698,7.89776c0.09212,2.64529 0.41338,5.28333 0.52795,7.94267c-1.93437,-2.68294 -1.97214,-5.97053 -2.84358,-8.98176c-0.09212,0.00702 -0.17595,0.02234 -0.25989,0.02948c0.14532,3.28056 0.11457,6.58346 0.50423,9.83213c0.38978,3.21078 1.20813,6.36848 1.68162,9.64789c-0.55029,-1.03219 -1.21516,-2.0182 -1.63556,-3.09633c-1.34619,-3.45536 -2.71369,-6.9106 -3.85319,-10.44264c-0.58933,-1.8434 -0.73453,-3.83085 -1.04036,-5.75682c-0.40267,-2.58023 0.00944,-5.12373 0.42029,-7.66021l0.00012,-0.00023l0.03063,-0.19138c0.03904,-0.21371 0.12286,-0.4204 0.19138,-0.62698z" style="animation-play-state: running;"/><path d="M318.2771,213.20298c0.29017,2.41488 0.20727,4.7472 -1.25396,6.86454c0,-0.18896 0.00576,-0.37907 0.01036,-0.57033l0.00115,-0.01543l0.00115,-0.02602c0.01036,-0.39519 0.02073,-0.79153 -0.01958,-1.18441c-0.19115,-1.85043 -0.3915,-3.70799 -0.65749,-5.55013c-0.28326,-1.98043 -0.68858,-3.94543 -0.96379,-5.93276c-0.21417,-1.56002 -0.3132,-3.13409 -0.45138,-4.70241c-0.01036,-0.16293 0.01612,-0.32702 0.04491,-0.49122c0.01151,-0.06494 0.02418,-0.13104 0.03224,-0.19598c0.06794,-0.00829 0.14509,-0.02361 0.21302,-0.03074c0.71161,1.85043 1.35414,3.73873 2.15672,5.55024c0.8187,1.82682 1.79631,3.58513 2.843,5.37418c-0.32011,-3.41747 -0.63331,-6.83494 -0.94767,-10.25127c2.26381,4.1201 3.36462,8.63114 4.50343,13.13388c0.08406,-0.00829 0.16812,-0.00829 0.25217,-0.01543v-7.47735c0.14509,-0.00714 0.28326,-0.01531 0.42835,-0.02245c1.56716,6.37562 2.58392,12.83633 2.77506,19.47173c0.18309,-1.00846 0.37423,-2.0182 0.54235,-3.02781c0.16927,-1.03921 0.33623,-2.07842 0.47441,-3.11878c0.14509,-1.06984 0.28211,-2.14094 0.37423,-3.21792c0.08406,-1.05568 0.10824,-2.11849 0.16121,-3.17301c0.06103,-0.00829 0.12206,-0.00829 0.18309,-0.01531c0.15315,0.72624 0.35926,1.43716 0.45023,2.17157c0.14624,1.1691 0.2752,2.35362 0.30629,3.53089c0.09212,3.26513 -0.36617,6.49134 -1.42898,9.55692c-1.25396,3.63833 -2.79003,7.1858 -4.23629,10.75676c-0.19805,0.49721 -0.54235,0.93293 -0.83367,1.3911c-0.05988,0.09926 -0.16696,0.16063 -0.32817,0.30583c0.64252,-3.25684 1.46123,-6.39923 1.84237,-9.5864c0.33969,-2.86373 0.3535,-5.7628 0.36847,-8.66545c0.0023,-0.3755 0.00461,-0.75215 0.00576,-1.12891c-1.01676,2.99004 -1.04554,6.26934 -3.00421,8.96771c0.02418,-0.25505 0.04721,-0.51137 0.07024,-0.76758c0.46289,-5.08021 0.92464,-10.14855 -0.28326,-15.14136c-0.51241,3.70799 -0.12321,7.61438 -2.05769,11.11568c-0.00461,-0.70966 0,-1.42162 0.00461,-2.13265v-0.00714l0.00115,-0.13818v-0.00115c0.03109,-3.93829 0.06103,-7.86828 -1.57983,-11.60345z" style="animation-play-state: running;"/><path d="M308.86607,215.86358c2.07151,3.85204 2.65991,8.07958 3.21838,12.27764c0.07715,-0.00818 0.14509,-0.01531 0.22224,-0.02361c0.2752,-0.77932 0.56538,-1.55162 0.81755,-2.33105c0.26714,-0.81122 0.54235,-1.6214 0.74155,-2.44678c0.20611,-0.82549 0.32126,-1.67448 0.5055,-2.65232c2.82803,7.53769 3.14929,14.93824 -0.03915,22.3685c2.23963,-2.25436 4.09005,-4.7472 5.61921,-7.64513c-0.56538,8.60166 -3.96684,15.71054 -9.8935,21.68948c2.55513,-1.13962 4.65658,-2.88261 6.67512,-4.74018c0.05297,0.04606 0.09903,0.08383 0.15315,0.12989c-1.35299,2.0418 -2.61501,4.14382 -4.07508,6.10825c-1.28505,1.73528 -2.72209,3.37959 -4.22017,4.9456c-2.39968,2.51598 -5.06075,4.76367 -8.15016,6.39992c-3.02747,1.60631 -6.13796,3.04336 -9.1964,4.57943c-0.2752,0.14509 -0.51966,0.46635 -0.64241,0.75652c-1.06995,2.6461 -2.04883,5.35207 -4.27371,7.28655c-0.44781,0.38575 -0.92107,0.74501 -1.40722,1.08815h-5.45651c-0.02625,-0.09788 -0.05205,-0.19575 -0.07749,-0.29363c-0.89516,-3.43947 -0.2752,-6.73615 1.00144,-9.9695c0.95527,-2.4158 1.65087,-4.91566 1.95671,-7.49267c0.40497,-3.33238 -0.1216,-6.55767 -1.55876,-9.60851c-1.13962,-2.41603 -2.33934,-4.80143 -3.44119,-7.2329c-0.35074,-0.77944 -0.45817,-1.67333 -0.55029,-2.5838c0.11457,0.13818 0.24446,0.25977 0.34487,0.40497c1.15367,1.65214 2.71369,2.75272 4.66337,3.2109c1.88819,0.44401 3.60758,0.06137 5.12972,-1.24578c1.28367,-1.10058 2.17871,-2.46935 2.89677,-3.94427c0.98601,-2.01923 2.20946,-3.86148 3.8768,-5.3447c2.04065,-1.80437 4.18159,-3.51661 6.32208,-5.20537c2.89021,-2.28615 5.61921,-4.70229 7.23934,-8.10445c0.88664,-1.85043 1.40711,-3.80713 1.54413,-5.85607c0.07715,-1.13121 0.11515,-2.27083 0.14624,-3.40918c0.01036,-0.24354 -0.02073,-0.48949 -0.05067,-0.7366l-0.00115,-0.00265c-0.01497,-0.12632 -0.02994,-0.25148 -0.0403,-0.37665zM306.73238,237.52934c1.38408,-2.84473 1.98745,-5.90213 2.62307,-8.95228c-0.16812,0.08383 -0.2752,0.18297 -0.36041,0.29754c-1.11578,1.46077 -2.05539,3.09633 -3.37844,4.34211c-2.44689,2.30157 -5.15171,4.32795 -7.66009,6.567c-3.11164,2.78335 -5.76395,5.93276 -7.26249,9.90882c-0.48178,1.29898 -0.76527,2.637 -0.87155,4.21936c0.88687,-0.77944 1.60482,-1.41355 2.33117,-2.04883c0.03892,0.03063 0.06966,0.06137 0.10743,0.09212c-0.94007,1.17025 -1.88831,2.3322 -2.82826,3.5013c0.06851,0.08383 0.12989,0.16766 0.1984,0.25275c2.32403,-1.37694 4.64092,-2.75272 6.86569,-4.06702c-1.1927,2.75975 -3.05142,5.25143 -5.36716,7.44546c2.49168,-0.4272 4.64794,-1.47493 6.62837,-2.98164c-1.74299,3.78422 -3.33364,7.68428 -7.82107,9.22726c2.84358,1.92757 5.7415,1.31614 8.74536,0.52047c-1.62808,1.5211 -3.25661,3.05027 -4.88503,4.57137c0.06966,0.06909 0.12989,0.14509 0.19138,0.21417c2.07243,-0.51126 4.06725,-1.26893 5.83362,-2.46877c1.64316,-1.10887 3.24141,-2.31677 4.71646,-3.63867c2.20278,-1.96557 4.28235,-4.06817 6.39876,-6.12471c0.29823,-0.29017 0.52047,-0.64909 0.83367,-1.03875c-2.02545,0.77967 -6.21568,2.13265 -6.88008,1.83442c0.08291,-0.06218 0.152,-0.12206 0.2372,-0.16812c2.96621,-1.62151 5.50407,-3.77662 7.30843,-6.62848c1.36796,-2.1634 2.47568,-4.4956 3.64673,-6.77357c0.55041,-1.06984 0.97761,-2.20117 1.40596,-3.18844c-0.74155,0.65784 -1.49807,1.41471 -2.3398,2.04883c-0.81755,0.62007 -1.69613,1.15493 -2.59198,1.65917c-0.87858,0.49721 -1.81818,0.91047 -2.729,1.36162c3.32547,-3.80011 4.65658,-15.34448 3.77685,-18.11966c-1.91836,3.0893 -4.08199,5.85607 -6.87317,8.13519z" style="animation-play-state: running;"/><path d="M278.95826,227.62881c-0.13691,0.05308 -0.26691,0.09914 -0.3968,0.1452c-0.36721,-0.78761 -0.73441,-1.57534 -1.10173,-2.37009c0.10743,-0.05308 0.20669,-0.09914 0.31412,-0.15234c0.38966,0.79475 0.78761,1.58248 1.18441,2.37723z" style="animation-play-state: running;"/><path d="M257.04091,281.57143c-4.15902,-2.46186 -8.83771,-3.59261 -13.33343,-5.24383c-3.59342,-1.30693 -6.9342,-3.01918 -9.84629,-5.55819c-1.97329,-1.71225 -3.64662,-3.66976 -5.15344,-5.78618c-0.04606,-0.06218 -0.06137,-0.1543 -0.16052,-0.3915c0.91047,0.82676 1.68979,1.52916 2.46923,2.23272c2.43146,2.17975 5.25258,3.68473 8.27211,4.84657c3.5781,1.37717 7.30152,2.37895 10.70368,4.19714c1.80322,0.96379 3.52375,2.05769 4.96909,3.5408c0.68732,0.71046 1.45961,1.33802 2.19414,2.00242z" style="animation-play-state: running;"/><path d="M303.9815,275.12775c-3.94496,1.50613 -7.39364,3.74576 -10.12978,7.05626c0.45817,-0.25333 0.90218,-0.57459 1.3911,-0.75767c3.21044,-1.21481 6.42882,-2.43768 9.66332,-3.58455c3.00421,-1.07087 5.98538,-2.15672 8.68445,-3.88394c2.47683,-1.58328 4.67155,-3.47977 6.55076,-5.73321c0.84288,-1.01676 1.59134,-2.11066 2.37895,-3.16657c-0.93961,0.76573 -1.79631,1.60631 -2.68294,2.40889c-1.86539,1.68922 -3.96109,3.08136 -6.27786,4.02787c-3.1562,1.30117 -6.3907,2.41004 -9.578,3.63291z" style="animation-play-state: running;"/></g><g style="animation-play-state: running;"><path d="M77.25438,337.31794h79.09815v5.73321h237.29458v-5.73321h79.0985l-5.73321,-22.93399l5.73321,-22.93284h-79.0985v-5.73321h-237.29458v5.73321h-79.09815l5.73333,22.93284zM233.412,301.72345c0.35926,-0.13472 0.74086,-0.20266 1.14491,-0.20266c0.74086,0 1.43117,0.21302 2.07105,0.64022c0.63976,0.42605 1.13927,1.00985 1.49842,1.75025c0.24699,0.56192 0.37043,1.19063 0.37043,1.88612c0,0.53889 -0.06736,0.97645 -0.20197,1.31384c-0.42662,0.94306 -1.08884,1.62704 -1.98688,2.05424l-0.77448,0.36962c0.02245,1.7514 0.05619,4.37216 0.1011,7.86345c0.04479,3.49128 0.07853,6.10053 0.10098,7.8289l-0.37043,0.37078c-0.22454,0.22454 -0.44896,0.33623 -0.6735,0.33623c-0.24688,0 -0.51632,-0.1566 -0.80822,-0.47095c-0.42651,-0.49398 -4.04088,-5.55588 -10.84313,-15.18685c-2.1102,-2.96391 -3.19904,-4.44586 -3.2664,-4.44586c-0.06736,0 -0.10098,1.25741 -0.10098,3.77224c0,0.42605 0.00564,1.29656 0.01681,2.60925c0.01121,1.31345 0.01681,2.43039 0.01681,3.3508c0.04491,4.26508 0.06736,6.54385 0.06736,6.83633c0,1.97479 -0.08982,3.08596 -0.26933,3.33353c-0.17963,0.24642 -0.40417,0.37078 -0.6735,0.37078h-0.16835c-0.13472,0 -0.23018,-0.02879 -0.28626,-0.08521c-0.05619,-0.05527 -0.11791,-0.20151 -0.18527,-0.43756c-0.06725,-0.2349 -0.11215,-0.59992 -0.13461,-1.0939c-0.02245,-0.49398 -0.04491,-1.18487 -0.06736,-2.07151c-0.02245,-0.88664 -0.03927,-1.99206 -0.05055,-3.31626c-0.01117,-1.32535 -0.0281,-2.95239 -0.05055,-4.88342v-0.16812l-0.10098,-11.38236l0.33681,-0.33623c0.24688,-0.24642 0.49387,-0.37078 0.74075,-0.37078h0.03374c0.22442,0 0.60614,0.36502 1.14491,1.09506c0.53882,0.72927 2.37968,3.294 5.52261,7.69418c3.0756,4.30998 5.14089,7.19559 6.1961,8.65451c1.21228,1.68346 1.86328,2.52519 1.95302,2.52519c0.11227,0 0.16835,-1.41402 0.16835,-4.2432c0,-3.09748 -0.03362,-5.17359 -0.10098,-6.2295l-0.10098,-1.95291l-0.70724,-0.30284c-0.67338,-0.31435 -1.23462,-0.82561 -1.68369,-1.53262c-0.44896,-0.70701 -0.6735,-1.41977 -0.6735,-2.1383c0,-0.83022 0.25816,-1.59365 0.7746,-2.28914c0.51632,-0.69664 1.18982,-1.20099 2.02038,-1.51535zM262.60762,301.6889c0.15718,-0.11169 0.31435,-0.16812 0.47153,-0.16812c0.24688,0 0.47142,0.08406 0.6735,0.25217c0.20197,0.16927 0.30307,0.36502 0.30307,0.58956c0,0.08982 -0.75767,1.33571 -2.27302,3.7377c-1.51535,2.40198 -2.40774,3.80564 -2.67719,4.2098c-0.04491,0.13472 -0.06736,0.22454 -0.06736,0.26945c0,0.17963 0.12355,0.51586 0.37043,1.00985c0.33681,0.67361 0.50515,1.31384 0.50515,1.91951c0,0.53889 -0.15718,1.12269 -0.47142,1.7514c-0.24695,0.53889 -0.37043,0.8306 -0.37043,0.87512c0,0.02303 0.04491,0.12321 0.13472,0.30284l2.76124,4.17641c1.66124,2.46877 2.49191,3.84939 2.49191,4.14187c0,0.22454 -0.11227,0.42029 -0.33681,0.58956c-0.22442,0.16812 -0.44896,0.25217 -0.67338,0.25217h-0.16846c-0.17952,-0.04491 -0.46577,-0.34199 -0.85866,-0.8924c-0.39288,-0.55041 -1.52099,-2.2615 -3.38431,-5.13559c-0.98774,-1.52609 -1.57142,-2.28914 -1.75105,-2.28914c-0.02245,0 -0.1178,0.00461 -0.28614,0.01612c-0.16846,0.01151 -0.37607,0.02303 -0.62306,0.03339c-0.24688,0.01151 -0.47142,0.01727 -0.6735,0.01727l-1.31326,0.03339l-2.49191,3.80564c-1.18982,1.84121 -2.01486,3.06984 -2.47499,3.68703c-0.46025,0.61719 -0.80258,0.92579 -1.02712,0.92579c-0.15718,0 -0.35362,-0.10594 -0.58933,-0.31896c-0.23571,-0.21417 -0.3535,-0.39956 -0.3535,-0.55616c0,-0.31397 1.07755,-2.06498 3.23266,-5.25304c1.43681,-2.17745 2.15522,-3.30014 2.15522,-3.36807c0,-0.11208 -0.13472,-0.41492 -0.40417,-0.90852c-0.35915,-0.62871 -0.53878,-1.31384 -0.53878,-2.05424c0,-0.85325 0.22454,-1.57177 0.6735,-2.15557c0.26937,-0.33623 0.40405,-0.58303 0.40405,-0.7404c0,-0.15775 -0.24688,-0.59531 -0.74075,-1.31384c-2.71645,-4.04054 -4.07462,-6.20647 -4.07462,-6.49894c0,-0.35926 0.17963,-0.62871 0.53878,-0.80834c0.11227,-0.06679 0.22454,-0.10018 0.33669,-0.10018c0.24699,0 0.54442,0.22454 0.8924,0.67246c0.34798,0.44908 1.02712,1.43704 2.03731,2.96391c1.45923,2.24462 2.28987,3.49051 2.49191,3.7377c0.13472,0.17963 0.28062,0.28672 0.43779,0.32011c0.15706,0.03339 0.53878,0.06218 1.14491,0.08406l1.2459,0.03339l2.55928,-3.80448c1.7286,-2.60464 2.64909,-3.95187 2.76124,-4.04169zM242.94187,301.6889c-0.29178,0 -0.50515,0.07945 -0.63976,0.23605c-0.11227,0.11284 -0.17963,0.75192 -0.20208,1.91951c-0.02245,1.1676 -0.03374,4.48961 -0.03374,9.9672v2.39162c0,4.80397 0.0281,7.65503 0.08429,8.55318c0.05608,0.89815 0.25252,1.34723 0.58921,1.34723h0.23571c0.31435,0 0.55006,-0.14624 0.70724,-0.43871c0.11227,-0.17963 0.17952,-0.84749 0.20197,-2.00357c0.02245,-1.15608 0.03374,-4.47234 0.03374,-9.94992v-11.58387l-0.30307,-0.23605c-0.20208,-0.13472 -0.42651,-0.20266 -0.6735,-0.20266zM288.60431,301.6889c-0.74086,0 -1.40319,0.10133 -1.98688,0.30399c-1.25718,0.44793 -2.32345,1.16069 -3.19904,2.1383c-0.87547,0.97645 -1.50406,2.1383 -1.88578,3.48437c-0.15718,0.56192 -0.23571,1.17911 -0.23571,1.85273c0,1.30232 0.31435,2.54822 0.94295,3.7377c0.62859,1.18948 1.50406,2.15557 2.62652,2.89597c0.53878,0.33623 0.97657,0.65059 1.31338,0.94306c0.67346,0.58342 1.48165,0.87512 2.42455,0.87512c1.59388,0 2.81732,-0.72889 3.67045,-2.18896c0.15714,-0.29171 0.26377,-0.44869 0.31988,-0.47095c0.05619,-0.02303 0.12908,0.02188 0.2189,0.13472c0.17963,0.24642 0.35362,0.68974 0.52197,1.32996c0.16835,0.64022 0.25252,1.20675 0.25252,1.70073c0,2.46877 -1.13363,4.2432 -3.40112,5.31983c-0.44896,0.20266 -0.79694,0.32587 -1.04382,0.37078c-0.24699,0.04491 -0.72969,0.06794 -1.4481,0.06794c-0.71829,0 -1.20099,-0.02303 -1.44798,-0.06794c-0.24688,-0.04491 -0.59485,-0.16812 -1.04382,-0.37078c-1.54908,-0.71737 -2.59301,-1.85158 -3.13179,-3.40032c-0.22442,-0.67361 -0.52749,-1.011 -0.90921,-1.011c-0.17952,0 -0.32552,0.04491 -0.43768,0.13472c-0.26945,0.15775 -0.40417,0.39381 -0.40417,0.70816c0,0.20151 0.08982,0.59416 0.26945,1.17796c0.40409,1.1676 1.05514,2.15557 1.95314,2.96391c1.41425,1.27929 3.13168,1.91951 5.15206,1.91951c2.24504,0 4.13081,-0.79797 5.65733,-2.39162c1.45927,-1.48195 2.18885,-3.27711 2.18885,-5.38777v-0.53889c-0.08982,-1.45892 -0.49387,-2.71634 -1.21228,-3.77109c-0.33669,-0.49398 -0.98221,-1.20675 -1.93621,-2.1383c-0.95411,-0.93155 -1.62209,-1.48771 -2.00369,-1.66734c-0.53878,-0.26945 -1.11129,-0.40417 -1.71743,-0.40417c-0.71829,0 -1.39179,0.18539 -2.02038,0.55616c-0.62859,0.36962 -1.11129,0.88088 -1.44798,1.53147c-0.31435,0.56192 -0.4827,0.92118 -0.50515,1.07778c-0.04491,0.13472 -0.08417,0.1969 -0.11791,0.18539c-0.03362,-0.01151 -0.14025,-0.11745 -0.31988,-0.32011c-0.56123,-0.69549 -0.89792,-1.69498 -1.01019,-2.9973v-0.43756c0,-1.14457 0.29743,-2.20508 0.8924,-3.18153c0.59485,-0.97645 1.39743,-1.70073 2.40763,-2.17284c0.98785,-0.44793 1.87461,-0.67246 2.66026,-0.67246c0.31435,0 0.76896,0.0783 1.36393,0.2349c0.59485,0.15737 1.06067,0.32587 1.39743,0.5055c0.42651,0.20151 0.89792,0.57228 1.41436,1.11118c0.51632,0.53889 0.88675,1.04439 1.11118,1.51535c0.26945,0.53889 0.4827,0.8924 0.63988,1.06051c0.15706,0.16812 0.34798,0.25333 0.5724,0.25333c0.53878,0 0.80822,-0.28096 0.80822,-0.84288c0,-0.51586 -0.21325,-1.13305 -0.63988,-1.85158c-0.78565,-1.36911 -1.90811,-2.4135 -3.36738,-3.13202l-1.2459,-0.60568l-1.85215,-0.06794zM179.60045,302.05968c0.15715,-0.15737 0.35919,-0.23605 0.60614,-0.23605c0.2694,0 0.48267,0.07868 0.63982,0.23605c0.15714,0.13472 0.23572,1.80667 0.23572,5.01699c0,3.16541 0.02244,4.83851 0.06735,5.01814c0.06735,0.15737 0.58368,0.23605 1.54902,0.23605h1.44799l0.16837,-0.57344c0.11225,-0.38114 0.38165,-0.79682 0.80819,-1.2459c0.42654,-0.44908 0.85308,-0.77379 1.27963,-0.97645c0.47144,-0.22454 1.03268,-0.33623 1.68371,-0.33623c0.69593,0 1.27963,0.12321 1.75106,0.37078c0.92043,0.47095 1.57147,1.18948 1.95311,2.15442l0.23572,0.60683h2.66024l0.03374,-4.88342c0.02245,-2.35708 0.04491,-3.77685 0.06736,-4.25932c0.02245,-0.48247 0.10098,-0.79222 0.23571,-0.92694c0.15706,-0.20151 0.3816,-0.30284 0.6735,-0.30284c0.22442,0 0.41522,0.07945 0.5724,0.23605c0.06736,0.06679 0.11791,0.18539 0.15153,0.3535c0.03374,0.16812 0.06172,0.67361 0.08417,1.51535c0.02245,0.84173 0.03374,1.97018 0.03374,3.38419v6.43216c0,7.63277 -0.07857,11.5501 -0.23571,11.75199c-0.13472,0.20266 -0.33681,0.30284 -0.60614,0.30284c-0.26945,0 -0.50515,-0.12321 -0.70724,-0.36962c-0.13461,-0.20266 -0.2189,-0.5838 -0.25252,-1.14572c-0.03362,-0.56077 -0.05055,-2.14405 -0.05055,-4.74755v-5.52249h-2.69392l-0.30307,0.63907c-0.42654,0.87627 -1.0439,1.52686 -1.85208,1.95406c-0.42654,0.22454 -1.03268,0.33623 -1.81841,0.33623c-0.69593,0 -1.24595,-0.10133 -1.65005,-0.30284c-0.85308,-0.47134 -1.47044,-1.0774 -1.85208,-1.81818l-0.40409,-0.80834l-1.48167,0.03339l-1.48167,0.06794l-0.03368,5.52249c-0.02244,2.73822 -0.0449,4.36065 -0.06735,4.865c-0.02244,0.5055 -0.11225,0.8141 -0.26939,0.92694c-0.1796,0.1566 -0.37042,0.2349 -0.57247,0.2349c-0.20204,0 -0.39286,-0.08982 -0.57246,-0.26945c-0.1347,-0.13472 -0.21328,-0.70701 -0.23572,-1.71685c-0.02245,-1.00985 -0.03368,-4.35489 -0.03368,-10.03513c0,-5.38815 0.01123,-8.66027 0.03368,-9.81635c0.02244,-1.15608 0.08979,-1.7894 0.20204,-1.90224zM320.9992,301.82363c-0.22454,0 -0.4272,0.06794 -0.60683,0.20266c-0.06679,0.06679 -0.11745,0.16236 -0.15084,0.28557c-0.03339,0.12436 -0.06794,0.55041 -0.10133,1.28044c-0.03339,0.72889 -0.05642,1.70534 -0.06679,2.92936c-0.01151,1.22287 -0.01727,3.13778 -0.01727,5.74127l-0.03339,10.06853l-0.5055,0.26945c-0.42605,0.22454 -0.76919,0.5838 -1.02712,1.07778c-0.25793,0.49398 -0.3869,1.00985 -0.3869,1.54874c0,0.24718 0.03378,0.49437 0.10133,0.74155c0.11208,0.42605 0.38114,0.85824 0.80719,1.29656c0.4272,0.43756 0.85325,0.71277 1.28044,0.82446c0.24642,0.06679 0.49398,0.10133 0.7404,0.10133c1.12231,0 1.97555,-0.47172 2.55974,-1.41517l0.33623,-0.53774h4.2432c2.55858,0 4.00714,-0.06794 4.34338,-0.20266c0.20266,-0.08982 0.30399,-0.33623 0.30399,-0.7404c0,-0.44908 -0.20842,-0.71277 -0.62295,-0.79222c-0.41568,-0.0783 -1.78019,-0.11745 -4.09235,-0.11745h-4.07393l-0.10133,-0.33623c-0.17963,-0.60683 -0.64022,-1.11118 -1.38062,-1.51535l-0.67361,-0.33738v-9.9672c0,-4.80397 -0.01151,-7.67806 -0.03339,-8.62112c-0.02303,-0.94306 -0.08982,-1.45892 -0.20266,-1.54874c-0.1566,-0.1566 -0.36962,-0.23605 -0.63907,-0.23605zM338.77917,302.02629c0.17963,-0.13472 0.38114,-0.20266 0.60568,-0.20266c0.26945,0 0.48247,0.07945 0.64022,0.23605c0.11169,0.08982 0.17963,0.60568 0.20151,1.54874c0.02303,0.94306 0.03454,3.81715 0.03454,8.62112v9.9672l0.67246,0.33738c0.74155,0.40417 1.20214,0.90852 1.38177,1.51535l0.10018,0.33623h4.07508c2.31217,0 3.67552,0.03915 4.0912,0.11745c0.41568,0.07945 0.62295,0.34314 0.62295,0.79222c0,0.40417 -0.10133,0.65059 -0.30284,0.7404c-0.33738,0.13472 -1.78479,0.20266 -4.34453,0.20266h-4.24205l-0.33738,0.53774c-0.58342,0.94344 -1.43628,1.41517 -2.55858,1.41517c-0.24757,0 -0.49398,-0.03454 -0.74155,-0.10133c-0.42605,-0.11169 -0.85325,-0.3869 -1.27929,-0.82446c-0.4272,-0.43871 -0.69664,-0.87052 -0.80834,-1.29656c-0.06794,-0.24757 -0.10133,-0.49398 -0.10133,-0.74155c0,-0.53889 0.12897,-1.05475 0.38805,-1.54874c0.25793,-0.49398 0.59992,-0.85325 1.02597,-1.07778l0.5055,-0.26945l0.03339,-10.06853c0,-2.60349 0.00576,-4.5184 0.01727,-5.74127c0.01151,-1.22402 0.03339,-2.20048 0.06794,-2.92936c0.03339,-0.73004 0.06679,-1.15608 0.10018,-1.28044c0.03339,-0.12321 0.08406,-0.21878 0.152,-0.28557zM372.92511,306.90855c0.44908,-1.43704 1.31844,-2.64264 2.60925,-3.62025c1.29081,-0.97645 2.73361,-1.46468 4.32726,-1.46468c1.00985,0 2.05424,0.23605 3.13202,0.70701c0.56077,0.24757 1.18948,0.71277 1.88497,1.39789c0.69664,0.68513 1.17911,1.29656 1.44856,1.83546c0.53889,1.12269 0.80834,2.29029 0.80834,3.50165c0,0.47211 -0.05642,0.96609 -0.16812,1.48195c-0.17963,0.80834 -0.56768,1.6328 -1.16184,2.47568c-0.59493,0.84135 -1.24053,1.48656 -1.93679,1.93564l-0.70701,0.43756l0.26945,0.47211c0.69549,1.14457 1.70073,2.88445 3.01342,5.21965c1.31384,2.33405 1.97018,3.54655 1.97018,3.63637c0,0.17963 -0.0783,0.37078 -0.23605,0.57228c-0.13472,0.20266 -0.38114,0.30284 -0.7404,0.30284c-0.26945,0 -0.47095,-0.0783 -0.60568,-0.2349c-0.29248,-0.33738 -1.66158,-2.66107 -4.10847,-6.97105l-1.31384,-2.35708l-0.77379,0.10133c-0.15775,0.02188 -0.39381,0.03339 -0.70701,0.03339c-1.5948,0 -3.11014,-0.52738 -4.54604,-1.58328l-1.011,-0.7404v5.69061c0,3.03069 -0.03915,4.82124 -0.11745,5.37165c-0.0783,0.55041 -0.3086,0.82446 -0.69089,0.82446h-0.2349c-0.31435,0 -0.5055,-0.34199 -0.57344,-1.02712c-0.06679,-0.68398 -0.10018,-2.8004 -0.10018,-6.34695v-1.91951c0,-4.33301 0.01036,-6.92614 0.03339,-7.77939c0.02188,-0.85209 0.10133,-1.50383 0.23605,-1.95291zM204.08166,301.85817c-2.33474,0 -3.52456,0.01036 -3.56947,0.03339c-0.08982,0.02226 -0.2245,0.19038 -0.40405,0.50435c-0.13472,0.29248 -0.20208,4.19906 -0.20208,11.71975v11.31443l0.30307,0.33623l0.33681,0.33738h6.39807c4.26538,0 6.5328,-0.06755 6.80224,-0.20266c0.33669,-0.17963 0.50504,-0.43756 0.50504,-0.77494c0,-0.35811 -0.16835,-0.60568 -0.50504,-0.7404c-0.26945,-0.08982 -2.32357,-0.13472 -6.16248,-0.13472h-5.82556v-3.70431c0,-2.44651 0.01121,-3.66976 0.03362,-3.66976l0.60614,0.20151c0.33669,0.13472 0.74086,0.20266 1.21228,0.20266c0.449,0 0.93166,-0.07868 1.44798,-0.23605c0.449,-0.15737 0.90921,-0.4437 1.38062,-0.859c0.47153,-0.41568 0.78577,-0.82446 0.94295,-1.22863l0.26933,-0.60683l1.68381,-0.06679c0.7632,-0.02303 1.2459,-0.05642 1.44798,-0.10133c0.20197,-0.04491 0.37043,-0.14624 0.50504,-0.30284c0.15714,-0.17963 0.23571,-0.34813 0.23571,-0.5055c0,-0.1566 -0.0897,-0.33623 -0.26933,-0.53889c-0.13472,-0.17963 -0.28062,-0.28557 -0.43779,-0.32011c-0.15718,-0.03339 -0.62859,-0.04951 -1.41436,-0.04951h-1.61633l-0.47142,-0.90967c-0.76331,-1.48195 -1.96431,-2.22235 -3.60321,-2.22235c-0.60614,0 -1.08872,0.06679 -1.44798,0.20151l-0.50504,0.20266v-6.16271l5.62359,0.06794c1.01019,0.02188 2.16639,0.03339 3.46848,0.03339c1.4367,0 2.24492,-0.0783 2.42455,-0.23605c0.17952,-0.1566 0.26933,-0.37078 0.26933,-0.64022c0,-0.29132 -0.08982,-0.49398 -0.26933,-0.60568c-0.13472,-0.11169 -0.54442,-0.19115 -1.2292,-0.23605c-0.68467,-0.04491 -2.41891,-0.0783 -5.20261,-0.10018zM300.69288,301.89156c0.04491,-0.02303 1.23554,-0.03339 3.56958,-0.03339h2.76124c2.78427,0.02188 4.5184,0.05527 5.20353,0.10018c0.68398,0.04491 1.0939,0.12436 1.22863,0.23605c0.17963,0.11169 0.26945,0.31435 0.26945,0.60568c0,0.26945 -0.08982,0.48362 -0.26945,0.64022c-0.17963,0.15737 -0.98797,0.23605 -2.42501,0.23605c-1.30117,0 -2.45725,-0.01151 -3.46825,-0.03339l-5.62382,-0.06794v6.16271l0.5055,-0.20266c0.35926,-0.13472 0.84173,-0.20151 1.44856,-0.20151c1.63855,0 2.83955,0.7404 3.60298,2.22235l0.47095,0.90967h1.61668c0.78531,0 1.25741,0.01612 1.41402,0.04951c0.15775,0.03454 0.30284,0.14048 0.43756,0.32011c0.17963,0.20266 0.26945,0.38229 0.26945,0.53889c0,0.15737 -0.0783,0.32587 -0.2349,0.5055c-0.13472,0.1566 -0.30399,0.25793 -0.5055,0.30284c-0.20266,0.04491 -0.68513,0.0783 -1.44856,0.10133l-1.68346,0.06679l-0.26945,0.60683c-0.1566,0.40417 -0.47095,0.81294 -0.94306,1.22863c-0.47134,0.4153 -0.93155,0.70163 -1.38062,0.859c-0.51586,0.1566 -0.99833,0.23605 -1.44741,0.23605c-0.47211,0 -0.87512,-0.06794 -1.21251,-0.20266l-0.60568,-0.20151c-0.02303,0 -0.03454,1.22287 -0.03454,3.66976v3.70431h5.82648c3.83903,0 5.89327,0.04491 6.16156,0.13472c0.33738,0.13472 0.5055,0.38229 0.5055,0.7404c0,0.33738 -0.16812,0.59531 -0.5055,0.77494c-0.26868,0.13511 -2.53594,0.20266 -6.80178,0.20266h-6.39761l-0.33738,-0.33738l-0.30284,-0.33623v-11.31443c0,-7.52146 0.06679,-11.42727 0.20151,-11.71975c0.17963,-0.3132 0.31435,-0.48247 0.40417,-0.50435zM358.91623,301.85817c-2.3352,0 -3.52468,0.01036 -3.56958,0.03339c-0.08982,0.02188 -0.22454,0.19115 -0.40417,0.50435c-0.13434,0.29248 -0.20151,4.19906 -0.20151,11.71975v11.31443l0.30284,0.33623l0.33623,0.33738h6.39876c4.26508,0 6.53234,-0.06794 6.80178,-0.20266c0.33738,-0.17963 0.5055,-0.43756 0.5055,-0.77494c0,-0.35811 -0.16812,-0.60568 -0.5055,-0.7404c-0.26945,-0.08982 -2.32368,-0.13472 -6.16271,-0.13472h-5.82533v-3.70431c0,-2.44689 0.01151,-3.66976 0.03339,-3.66976l0.60683,0.20151c0.33623,0.13472 0.7404,0.20266 1.21251,0.20266c0.44908,0 0.93155,-0.07945 1.44741,-0.23605c0.44908,-0.15737 0.90928,-0.4437 1.38062,-0.859c0.47211,-0.41568 0.78646,-0.82446 0.94306,-1.22863l0.26945,-0.60683l1.68346,-0.06679c0.76343,-0.02303 1.2459,-0.05642 1.44856,-0.10133c0.20151,-0.04491 0.36962,-0.14624 0.50435,-0.30284c0.15737,-0.17963 0.23605,-0.34813 0.23605,-0.5055c0,-0.1566 -0.08982,-0.33623 -0.26945,-0.53889c-0.13472,-0.17963 -0.28096,-0.28557 -0.43756,-0.32011c-0.15775,-0.03339 -0.62871,-0.04951 -1.41402,-0.04951h-1.61668l-0.47211,-0.90967c-0.76228,-1.48195 -1.96327,-2.22235 -3.60298,-2.22235c-0.60568,0 -1.08815,0.06679 -1.44741,0.20151l-0.5055,0.20266v-6.16271l5.62382,0.06794c1.00985,0.02188 2.16593,0.03339 3.46825,0.03339c1.43704,0 2.24538,-0.0783 2.42501,-0.23605c0.17963,-0.1566 0.26945,-0.37078 0.26945,-0.64022c0,-0.29132 -0.08982,-0.49398 -0.26945,-0.60568c-0.13511,-0.11208 -0.54503,-0.19076 -1.22978,-0.23605c-0.68398,-0.04491 -2.4181,-0.0783 -5.20238,-0.10018zM161.95506,302.32912c0.20208,-0.24642 0.38172,-0.37078 0.53889,-0.37078c0.17952,0 0.37032,0.12436 0.5724,0.37078c0.24699,0.24642 0.37043,0.6621 0.37043,1.2459c0,0.62871 0.02245,0.94306 0.06736,0.94306c0.06736,0 0.30307,-0.17963 0.70712,-0.53889c1.30209,-1.14457 2.81744,-1.71801 4.54604,-1.71801c1.36945,0 2.64345,0.37078 3.82206,1.11233c1.1786,0.7404 2.09342,1.78479 2.74446,3.13087c0.26939,0.53889 0.42654,0.93193 0.47144,1.17911c0.0449,0.24642 0.06735,0.77379 0.06735,1.58213c0,1.14572 -0.08979,1.95406 -0.26939,2.42501c-0.5388,1.43704 -1.42555,2.58737 -2.66027,3.45213c-1.23473,0.86361 -2.6041,1.29541 -4.10828,1.29541c-1.70615,0 -3.23278,-0.54926 -4.57966,-1.65007l-0.80822,-0.63907v5.58928c0,3.05372 -0.03927,4.85003 -0.11791,5.38777c-0.07853,0.53889 -0.34233,0.80834 -0.7913,0.80834h-0.26945c-0.31424,0 -0.50504,-0.38114 -0.5724,-1.14457c-0.06736,-0.76343 -0.10098,-3.03069 -0.10098,-6.80178v-15.32272zM235.87029,303.64296c-0.2919,-0.17963 -0.62859,-0.29248 -1.01031,-0.33738c-0.02245,0 -0.06736,-0.00576 -0.13461,-0.01727c-0.06736,-0.01036 -0.12355,-0.01612 -0.16846,-0.01612c-0.60614,0 -1.12246,0.22454 -1.54897,0.67361c-0.42658,0.44908 -0.63988,0.97645 -0.63988,1.58213c0,0.33738 0.07865,0.6621 0.23582,0.97645c0.44896,0.85325 1.12246,1.28044 2.02038,1.28044c0.38168,0 0.72965,-0.07868 1.04393,-0.23605c0.78577,-0.38229 1.17865,-1.03288 1.17865,-1.95291c0,-0.80834 -0.32552,-1.46007 -0.97657,-1.95291zM380.73674,303.67635c-0.53774,-0.08982 -0.86361,-0.13472 -0.97645,-0.13472c-0.94306,0.06679 -1.75025,0.27981 -2.42386,0.63907c-0.4272,0.22454 -0.8924,0.60683 -1.39789,1.14572c-0.5055,0.53889 -0.86937,1.04324 -1.0939,1.51535c-0.26945,0.56077 -0.40417,1.3242 -0.40417,2.28914c0,0.96609 0.12321,1.70649 0.36962,2.22235c0.5838,1.25741 1.47044,2.16708 2.66107,2.72785c0.42605,0.20266 0.75767,0.32587 0.99257,0.37078c0.23605,0.04491 0.71277,0.06679 1.43129,0.06679c1.011,0 1.78479,-0.13472 2.32368,-0.40302c0.94306,-0.47211 1.70649,-1.17336 2.29029,-2.1049c0.5838,-0.93155 0.87512,-1.91376 0.87512,-2.94663c0,-0.31435 -0.03339,-0.61719 -0.10133,-0.90967c-0.22454,-1.1676 -0.7404,-2.14866 -1.54874,-2.94663c-0.80834,-0.79682 -1.80744,-1.30731 -2.9973,-1.53147zM169.66651,304.08052c-0.53878,-0.08982 -0.83056,-0.13472 -0.87547,-0.13472c-0.20205,0 -0.57248,0.06717 -1.11129,0.20151c-1.27964,0.26945 -2.30664,0.90967 -3.08124,1.91951c-0.77448,1.00985 -1.16173,2.12217 -1.16173,3.33353c0,1.50498 0.56123,2.78427 1.68369,3.83903c0.47142,0.44908 0.98785,0.79682 1.54908,1.04439c0.51632,0.24642 1.23473,0.36962 2.15511,0.36962c0.62859,0 1.06074,-0.02188 1.29645,-0.06679c0.23571,-0.04491 0.56687,-0.17963 0.99338,-0.40417c0.94291,-0.44908 1.68936,-1.11118 2.23937,-1.9863c0.55002,-0.87589 0.82502,-1.81895 0.82502,-2.82918c0,-0.31435 -0.03368,-0.64022 -0.10102,-0.97645c-0.24695,-1.12269 -0.75767,-2.06575 -1.53219,-2.82918c-0.77451,-0.76228 -1.73425,-1.25626 -2.87917,-1.4808zM189.13029,311.11836c-0.33675,-0.15737 -0.68472,-0.23605 -1.04391,-0.23605c-0.89798,0 -1.57147,0.43756 -2.02046,1.31384c-0.15714,0.31435 -0.23572,0.65059 -0.23572,1.00985c0,0.40379 0.12347,0.80795 0.37042,1.21251c0.15715,0.26945 0.42654,0.49974 0.80819,0.68974c0.38163,0.19115 0.76328,0.28672 1.14493,0.28672h0.20205c0.60613,-0.08982 1.08318,-0.36502 1.43115,-0.82561c0.34798,-0.45944 0.52195,-0.9707 0.52195,-1.53147c0,-0.92118 -0.39286,-1.56025 -1.1786,-1.91951zM203.81233,311.01703c0.40405,0 0.7632,0.11284 1.07755,0.33623c0.76331,0.51701 1.14491,1.19063 1.14491,2.02084c0,0.67361 -0.29178,1.23438 -0.87558,1.68346c-0.42651,0.31474 -0.89792,0.47211 -1.41425,0.47211c-0.78577,0 -1.40308,-0.31435 -1.85215,-0.94306c-0.22442,-0.31435 -0.33669,-0.75192 -0.33669,-1.31384c0,-0.51586 0.10102,-0.90852 0.30307,-1.17796c0.53878,-0.71852 1.18982,-1.07778 1.95314,-1.07778zM305.0708,311.35326c-0.31435,-0.22339 -0.67361,-0.33623 -1.07778,-0.33623c-0.76343,0 -1.41402,0.35926 -1.95291,1.07778c-0.20151,0.26945 -0.30284,0.6621 -0.30284,1.17796c0,0.56192 0.11169,0.99948 0.33623,1.31384c0.44908,0.62871 1.06627,0.94306 1.85273,0.94306c0.51586,0 0.9872,-0.15737 1.41402,-0.47211c0.5838,-0.44908 0.87512,-1.00985 0.87512,-1.68346c0,-0.83022 -0.38114,-1.50383 -1.14457,-2.02084zM358.64678,311.01703c0.40417,0 0.76343,0.11284 1.07778,0.33623c0.76343,0.51701 1.14457,1.19063 1.14457,2.02084c0,0.67361 -0.29132,1.23438 -0.87512,1.68346c-0.42681,0.31474 -0.89815,0.47211 -1.41402,0.47211c-0.78646,0 -1.40365,-0.31435 -1.85273,-0.94306c-0.22454,-0.31435 -0.33623,-0.75192 -0.33623,-1.31384c0,-0.51586 0.10018,-0.90852 0.30284,-1.17796c0.53889,-0.71852 1.18948,-1.07778 1.95291,-1.07778zM256.91667,311.4212c-0.31424,-0.1566 -0.66222,-0.23605 -1.04382,-0.23605c-0.5164,0 -0.97665,0.15737 -1.38074,0.47211c-0.40405,0.31435 -0.67338,0.72889 -0.80811,1.2459c-0.04491,0.26945 -0.06736,0.45944 -0.06736,0.57228c0,0.60568 0.23571,1.12845 0.70712,1.56601c0.47142,0.43756 1.01031,0.65634 1.61645,0.65634c0.49387,0 0.954,-0.17963 1.38062,-0.53889c0.51632,-0.42605 0.77448,-0.95342 0.77448,-1.58213c0,-0.04491 -0.00564,-0.11284 -0.01681,-0.20266c-0.01128,-0.08982 -0.01693,-0.15698 -0.01693,-0.20151c-0.11215,-0.87627 -0.49387,-1.46007 -1.14491,-1.7514zM288.60431,311.62271c0.24688,0 0.49387,0.04491 0.74075,0.13472c1.03276,0.33738 1.54908,1.07778 1.54908,2.2235c0,0.62756 -0.20773,1.14457 -0.62295,1.54874c-0.41534,0.40417 -0.94859,0.60568 -1.59963,0.60568c-0.94283,0 -1.61633,-0.42605 -2.02038,-1.27929c-0.17963,-0.40417 -0.26945,-0.7404 -0.26945,-1.00985c0,-0.49398 0.21325,-0.96609 0.63988,-1.41517c0.47142,-0.53889 0.99891,-0.80834 1.58271,-0.80834zM321.06598,323.94813c0.33738,0 0.64022,0.11169 0.90967,0.33623c0.22415,0.20266 0.33623,0.49475 0.33623,0.87627c0,0.33623 -0.10018,0.62871 -0.30284,0.87512c-0.20151,0.22454 -0.5055,0.33738 -0.90852,0.33738c-0.33738,0 -0.62871,-0.10133 -0.87627,-0.30399c-0.22454,-0.22454 -0.33623,-0.51586 -0.33623,-0.87512c0,-0.337 0.11208,-0.64022 0.33623,-0.90967c0.22454,-0.22454 0.5055,-0.33623 0.84173,-0.33623zM340.36131,324.28436c-0.26945,-0.22454 -0.57228,-0.33623 -0.90852,-0.33623c-0.33738,0 -0.61719,0.11169 -0.84173,0.33623c-0.22454,0.26945 -0.33738,0.57344 -0.33738,0.90967c0,0.35926 0.11284,0.65059 0.33738,0.87512c0.24642,0.20266 0.53889,0.30399 0.87512,0.30399c0.40417,0 0.70701,-0.11284 0.90967,-0.33738c0.20151,-0.24642 0.30284,-0.53889 0.30284,-0.87512c0,-0.38229 -0.11284,-0.67361 -0.33738,-0.87627z" style="animation-play-state: running;"/></g><g data-paper-data="{&quot;isContainerElementsWrapper&quot;:true}" style="animation-play-state: running;"><path d="M146.00006,234.99988c0,-71.24473 57.75516,-128.99988 128.99988,-128.99988c71.24427,0 129.00012,57.75516 129.00012,128.99988c0,17.27482 -3.39571,33.75674 -9.55612,48.81462c-0.0023,-0.00115 -0.00461,-0.0023 -0.00691,-0.00345c-0.06218,-0.02648 -0.12551,-0.04836 -0.19115,-0.06794c-0.06448,-0.01958 -0.13012,-0.03685 -0.19575,-0.04951c-0.06679,-0.01267 -0.13357,-0.02303 -0.20036,-0.02994c-0.06794,-0.00576 -0.13472,-0.00921 -0.20266,-0.00921h-40.38234c8.79614,-14.11943 13.87762,-30.79364 13.87762,-48.65456c0,-50.88901 -41.25286,-92.14281 -92.14245,-92.14281c-50.88901,0 -92.14281,41.2538 -92.14281,92.14281c0,17.86093 5.08174,34.53514 13.87821,48.65456h-40.3828c-0.06759,0 -0.13507,0.00345 -0.20231,0.00921c-0.06725,0.00691 -0.13403,0.01689 -0.20036,0.02994c-0.06633,0.01267 -0.13184,0.02994 -0.19644,0.04951c-0.06471,0.01958 -0.12827,0.04145 -0.1908,0.06794c-0.0023,0.00115 -0.00461,0.0023 -0.00691,0.00345c-6.16006,-15.05788 -9.55566,-31.53991 -9.55566,-48.81462zM207.76524,345.1146c19.57882,11.97998 42.60044,18.8854 67.2347,18.8854c24.63473,0 47.65623,-6.90542 67.23482,-18.8854z" data-paper-data="{&quot;isBaseLogoContainer&quot;:true}" style="animation-play-state: running;"/></g></g></g></defs><style style="animation-play-state: running;">
            .strokeItem{
                fill: none;
                stroke-width: 2;
                stroke-linejoin: round;
                stroke-dasharray: 70 90;
                stroke-dashoffset: 0;
                animation: stroke 6000ms infinite linear;
            }

            @keyframes stroke {
                100% {
                    stroke-dashoffset: -160;
                }
            }
        </style><use href="#interstellar-group" class="strokeItem" style="stroke: rgb(255, 106, 19); animation-delay: 0ms; animation-play-state: running;"/><use href="#interstellar-group" class="strokeItem" style="stroke: rgb(210, 38, 48); animation-delay: -3000ms; animation-play-state: running;"/></svg>